<svg width="538" height="136" xmlns="http://www.w3.org/2000/svg" xmlns:xlink="http://www.w3.org/1999/xlink" xml:space="preserve" overflow="hidden"><defs><clipPath id="clip0"><rect x="1686" y="4305" width="538" height="136"/></clipPath></defs><g clip-path="url(#clip0)" transform="translate(-1686 -4305)"><path d="M385.371 450.435 361.647 450.265C374.794 439.369 381.018 433.637 388.212 449.348 387.269 449.787 386.33 450.146 385.371 450.435ZM335.585 450.183 318.542 445.841 323.722 435.481 343.1 450.186 335.585 450.186ZM320.466 450.101 316.456 450.018 317.461 448.097ZM322.385 450.101C321.277 449.24 320.153 448.341 319.044 447.512 322.438 448.36 326.297 449.208 330.071 450.101ZM353.295 448.514C345.303 448.006 337.11 441.971 327.564 434.812 342.412 434.812 357.188 439.635 372.089 437.57 365.57 445.899 359.508 448.907 353.295 448.514ZM392.137 445.591C389.876 441.995 386.586 438.407 384.786 434.812 391.433 433.483 396.785 430.94 401.744 428.548ZM309.105 444.671 308.018 442.832C301.792 427.78 293.992 404.317 291.98 388.201 297.744 408.08 315.239 424.692 316.788 427.628 316.32 429.762 309.687 440.611 309.105 444.671ZM303.758 435.564 288.804 409.836C287.919 403.665 288.844 397.378 290.643 389.286 292.642 405.289 297.282 422.095 303.758 435.564ZM384.786 432.641C393.272 419.916 401.781 403.014 410.267 390.29 412.683 395.124 413.7 400.593 414.274 406.076L403.915 424.54C397.171 427.113 390.117 428.644 384.786 432.641ZM371.169 431.971C357.297 432.162 342.646 430.321 329.653 428.466 336.015 415.739 343.722 400.508 352.208 387.781 358.57 402.634 369.944 415.691 377.016 431.721 375.073 431.841 373.154 431.947 371.169 431.971ZM382.698 428.466C374.215 413.615 365.705 396.618 357.22 381.767 374.191 381.767 391.204 381.752 408.093 382.522 401.808 398.72 393.304 413.615 382.698 428.466ZM317.123 422.701C314.649 420.578 296.66 397.011 293.399 384.109 295.244 370.143 298.523 359.314 308.436 345.684 300.668 381.053 313.057 412.624 317.123 422.701ZM319.964 420.528C313.246 407.801 301.848 369.747 316.873 338.665 321.112 349.271 344.706 374.773 341.349 377.425 339.053 380.606 327.224 409.637 319.964 420.528ZM287.218 407.08C287.21 407.046 287.141 407.03 287.135 406.995 283.837 393.607 284.587 380.205 286.049 366.816L287.218 364.812C287.25 370.914 287.635 377.106 290.059 382.522 286.516 391.46 287.207 398.669 287.218 407.08ZM284.879 403.07 281.289 396.886C279.487 390.067 279.237 383.604 280.117 377.09 280.128 377.034 280.112 376.979 280.117 376.92L283.962 370.321C283.247 381.084 283.511 391.542 284.879 403.07ZM417.7 399.98C416.884 393.904 415.739 387.845 414.527 381.77 418.277 381.77 423.61 381.81 427.639 382.355ZM280.452 395.385 280.202 394.97C279.766 392.804 279.285 390.657 278.78 388.536 279.33 390.737 279.875 393.046 280.452 395.385ZM278.615 392.376 277.863 391.042C277.946 389.767 278.012 388.494 278.196 387.197 278.196 388.866 278.344 390.625 278.615 392.376ZM276.944 389.371 276.109 387.867C276.046 386.705 275.907 385.523 275.857 384.359L277.194 382.02C277.249 382.61 277.289 383.189 277.361 383.777 277.146 385.645 277.053 387.516 276.944 389.371ZM291.645 380.433C294.829 358.161 299.969 341.849 309.69 326.47L314.367 335.659C302.953 345.755 298.01 355.155 291.645 380.433ZM290.141 378.594C288.581 372.982 287.946 367.924 288.137 363.226L296.992 347.94C294.518 358.07 293.102 369.107 290.141 378.594ZM405.502 371.576C389.95 370.266 374.17 371.076 354.631 371.076 360.994 358.349 367.845 343.116 373.675 329.975ZM424.716 371.493C409.188 371.517 411.131 361.174 412.103 349.189ZM348.115 365.814C344.761 358.373 331.973 341.469 327.732 332.986 340.459 326.624 355.32 326.64 370.167 326.64 361.153 338.537 355.365 354.129 348.115 365.814ZM405.754 364.56C400.03 355.825 390.338 340.621 376.349 326.637 408.26 334.269 412.403 343.563 405.754 364.56ZM402.329 331.899 375.849 322.962 383.282 315.441 392.974 315.441ZM325.393 326.637C330.57 322.324 334.535 318.04 338.843 315.358L359.309 315.443C361.052 316.233 362.896 317.118 364.903 318.282L369.668 321.707C355.37 322.398 338.12 322.396 325.393 326.637ZM320.549 325.048 316.124 316.028 318.63 315.358 333.834 315.358ZM372.923 320.788 364.488 315.441 378.937 315.441Z" fill="#FFFFFF" transform="matrix(1 0 0 -1 1410.14 4755.44)"/><path d="M467.382 363.327 463.468 367.241C462.732 366.503 462.046 365.966 461.406 365.626 460.768 365.285 459.955 365.115 458.963 365.115 457.374 365.115 456.128 365.639 455.222 366.686 454.908 367.029 454.661 367.396 454.475 367.792 454.291 368.19 454.151 368.687 454.052 369.282 453.951 369.875 453.874 370.643 453.816 371.578 453.76 372.514 453.731 373.731 453.731 375.233 453.731 376.737 453.76 377.957 453.816 378.892 453.874 379.827 453.951 380.593 454.052 381.188 454.151 381.783 454.291 382.278 454.475 382.676 454.661 383.072 454.908 383.442 455.222 383.782 456.128 384.829 457.374 385.355 458.963 385.355 459.955 385.355 460.768 385.185 461.406 384.845 462.046 384.505 462.732 383.965 463.468 383.229L467.382 387.141C466.189 388.302 464.943 389.174 463.641 389.756 462.336 390.335 460.776 390.625 458.963 390.625 455.732 390.625 453.011 389.522 450.797 387.311 449.495 386.006 448.671 384.497 448.331 382.78 447.99 381.066 447.82 378.552 447.82 375.233 447.82 371.919 447.99 369.41 448.331 367.706 448.671 366.008 449.495 364.491 450.797 363.157 453.011 360.946 455.732 359.84 458.963 359.84 460.776 359.84 462.336 360.133 463.641 360.712 464.943 361.294 466.189 362.166 467.382 363.327L467.382 363.327" fill="#FFFFFF" transform="matrix(1 0 0 -1 1410.14 4755.44)"/><path d="M490.152 371.196C490.152 373.293 489.974 375.001 489.621 376.32 489.265 377.638 488.605 378.794 487.643 379.785 486.878 380.577 485.919 381.231 484.771 381.741 483.625 382.251 482.286 382.506 480.753 382.506 479.224 382.506 477.89 382.256 476.756 381.762 475.623 381.265 474.672 380.606 473.907 379.785 472.945 378.794 472.286 377.638 471.929 376.32 471.576 375.001 471.398 373.293 471.398 371.196 471.398 369.07 471.576 367.348 471.929 366.027 472.286 364.709 472.945 363.555 473.907 362.564 474.672 361.77 475.623 361.116 476.756 360.608 477.89 360.095 479.224 359.84 480.753 359.84 482.286 359.84 483.625 360.095 484.771 360.608 485.919 361.116 486.878 361.77 487.643 362.564 488.605 363.555 489.265 364.709 489.621 366.027 489.974 367.348 490.152 369.07 490.152 371.196ZM484.625 371.196C484.625 369.835 484.545 368.73 484.391 367.879 484.234 367.029 483.886 366.333 483.349 365.796 482.695 365.142 481.831 364.818 480.753 364.818 479.705 364.818 478.855 365.142 478.204 365.796 477.691 366.333 477.351 367.029 477.183 367.879 477.013 368.73 476.928 369.835 476.928 371.196 476.928 372.554 477.013 373.659 477.183 374.512 477.351 375.363 477.691 376.04 478.204 376.553 478.855 377.204 479.705 377.531 480.753 377.531 481.831 377.531 482.695 377.204 483.349 376.553 483.886 376.04 484.234 375.363 484.391 374.512 484.545 373.659 484.625 372.554 484.625 371.196L484.625 371.196" fill="#FFFFFF" transform="matrix(1 0 0 -1 1410.14 4755.44)"/><path d="M526.717 360.098 526.717 374.257C526.717 375.533 526.526 376.686 526.143 377.72 525.76 378.756 525.144 379.7 524.293 380.548 523.672 381.172 522.882 381.656 521.934 381.996 520.985 382.336 519.956 382.506 518.851 382.506 517.461 382.506 516.244 382.278 515.194 381.826 514.147 381.372 513.153 380.662 512.218 379.7 510.857 381.571 508.901 382.506 506.35 382.506 505.329 382.506 504.33 382.307 503.352 381.911 502.374 381.512 501.532 380.946 500.822 380.208L500.822 382.251 495.422 382.251 495.422 360.098 500.95 360.098 500.95 373.492C500.95 374.879 501.311 375.902 502.034 376.553 502.757 377.204 503.629 377.531 504.649 377.531 505.643 377.531 506.499 377.204 507.221 376.553 507.944 375.902 508.306 374.879 508.306 373.492L508.306 360.098 513.833 360.098 513.833 373.619C513.833 374.951 514.203 375.937 514.939 376.572 515.675 377.212 516.541 377.531 517.533 377.531 518.524 377.531 519.382 377.204 520.105 376.553 520.828 375.902 521.19 374.879 521.19 373.492L521.19 360.098 526.717 360.098" fill="#FFFFFF" transform="matrix(1 0 0 -1 1410.14 4755.44)"/><path d="M551.249 371.196C551.249 373.463 551.121 375.342 550.866 376.83 550.611 378.318 549.989 379.543 548.995 380.508 548.371 381.132 547.584 381.621 546.635 381.975 545.687 382.328 544.674 382.506 543.595 382.506 542.405 382.506 541.376 382.328 540.512 381.975 539.649 381.621 538.833 381.018 538.067 380.165L538.067 382.251 532.71 382.251 532.71 351.977 538.237 351.977 538.237 362.051C538.947 361.259 539.734 360.693 540.597 360.35 541.461 360.01 542.463 359.84 543.595 359.84 544.674 359.84 545.687 360.018 546.635 360.374 547.584 360.728 548.371 361.217 548.995 361.839 549.989 362.833 550.64 364.249 550.954 366.093 551.095 366.829 551.177 367.595 551.206 368.387 551.235 369.181 551.249 370.117 551.249 371.196ZM545.721 371.196C545.721 370.175 545.679 369.296 545.594 368.56 545.508 367.821 545.338 367.17 545.083 366.601 544.828 366.035 544.448 365.596 543.935 365.283 543.425 364.972 542.774 364.818 541.979 364.818 541.187 364.818 540.534 364.972 540.023 365.283 539.513 365.596 539.13 366.035 538.875 366.601 538.62 367.17 538.45 367.821 538.365 368.56 538.28 369.296 538.237 370.175 538.237 371.196 538.237 372.216 538.28 373.093 538.365 373.832 538.45 374.568 538.62 375.214 538.875 375.764 539.13 376.32 539.513 376.75 540.023 377.064 540.534 377.375 541.187 377.531 541.979 377.531 542.774 377.531 543.425 377.375 543.935 377.064 544.448 376.75 544.828 376.32 545.083 375.764 545.338 375.214 545.508 374.568 545.594 373.832 545.679 373.093 545.721 372.216 545.721 371.196L545.721 371.196" fill="#FFFFFF" transform="matrix(1 0 0 -1 1410.14 4755.44)"/><path d="M574.701 360.098 574.701 382.251 569.174 382.251 569.174 368.855C569.174 367.467 568.812 366.447 568.09 365.796 567.367 365.142 566.495 364.818 565.475 364.818 564.483 364.818 563.625 365.142 562.902 365.796 562.179 366.447 561.818 367.467 561.818 368.855L561.818 382.251 556.29 382.251 556.29 368.092C556.29 366.787 556.452 365.623 556.779 364.602 557.103 363.585 557.693 362.649 558.544 361.799 559.846 360.494 561.592 359.84 563.774 359.84 564.823 359.84 565.828 360.04 566.793 360.438 567.757 360.834 568.592 361.4 569.301 362.139L569.301 360.098 574.701 360.098" fill="#FFFFFF" transform="matrix(1 0 0 -1 1410.14 4755.44)"/><path d="M590.827 360.098 590.827 364.775 588.829 364.775C587.553 364.775 586.916 365.44 586.916 366.774L586.916 377.404 590.827 377.404 590.827 381.613 586.916 381.613 586.916 388.161 581.388 388.161 581.388 381.613 579.049 381.613 579.049 377.404 581.388 377.404 581.388 366.431C581.388 364.703 581.933 363.215 583.025 361.969 584.117 360.72 585.712 360.098 587.808 360.098L590.827 360.098" fill="#FFFFFF" transform="matrix(1 0 0 -1 1410.14 4755.44)"/><path d="M614.025 369.452 614.025 371.919C614.025 375.036 613.169 377.579 611.453 379.551 609.738 381.52 607.378 382.506 604.373 382.506 601.452 382.506 599.116 381.512 597.357 379.53 595.6 377.545 594.721 374.765 594.721 371.196 594.721 369.041 594.997 367.217 595.55 365.729 596.103 364.244 596.855 363.072 597.803 362.221 598.755 361.371 599.831 360.762 601.035 360.396 602.241 360.026 603.552 359.84 604.968 359.84 606.868 359.84 608.441 360.119 609.688 360.669 610.937 361.225 612.167 362.11 613.387 363.327L610.028 366.604C609.292 365.865 608.561 365.333 607.838 365.009 607.115 364.682 606.172 364.52 605.011 364.52 603.509 364.52 602.324 364.972 601.46 365.881 600.596 366.787 600.163 367.978 600.163 369.452ZM608.582 373.237 600.163 373.237C600.193 373.718 600.24 374.135 600.312 374.491 600.384 374.845 600.503 375.219 600.674 375.618 600.987 376.325 601.46 376.886 602.098 377.298 602.738 377.707 603.496 377.914 604.373 377.914 605.282 377.914 606.044 377.707 606.669 377.298 607.293 376.886 607.761 376.325 608.072 375.618 608.242 375.219 608.364 374.845 608.434 374.491 608.505 374.135 608.556 373.718 608.582 373.237L608.582 373.237" fill="#FFFFFF" transform="matrix(1 0 0 -1 1410.14 4755.44)"/><path d="M635.362 380.42C634.626 381.188 633.848 381.725 633.024 382.039 632.202 382.349 631.24 382.506 630.135 382.506 629 382.506 627.929 382.278 626.922 381.826 625.917 381.372 625.131 380.805 624.565 380.125L624.565 382.251 619.162 382.251 619.162 360.098 624.69 360.098 624.69 373.449C624.69 374.752 625.051 375.759 625.777 376.468 626.499 377.175 627.326 377.531 628.261 377.531 628.886 377.531 629.417 377.43 629.856 377.231 630.297 377.034 630.743 376.694 631.195 376.211L635.362 380.42" fill="#FFFFFF" transform="matrix(1 0 0 -1 1410.14 4755.44)"/><path d="M670.21 372.599 670.21 376.936 658.943 376.936 658.943 372.001 664.297 372.001 664.297 370.941C664.297 370.146 664.194 369.386 663.979 368.666 663.769 367.94 663.434 367.324 662.979 366.816 661.932 365.681 660.585 365.115 658.943 365.115 657.327 365.115 656.064 365.639 655.158 366.686 654.845 367.029 654.605 367.39 654.435 367.773 654.265 368.153 654.122 368.658 654.008 369.282 653.896 369.904 653.816 370.67 653.774 371.578 653.734 372.485 653.71 373.705 653.71 375.233 653.71 376.766 653.734 377.991 653.774 378.913 653.816 379.833 653.896 380.593 654.008 381.188 654.122 381.783 654.271 382.278 654.454 382.676 654.64 383.072 654.871 383.426 655.158 383.737 656.091 384.816 657.353 385.355 658.943 385.355 660.045 385.355 660.968 385.156 661.704 384.757 662.443 384.361 663.277 383.694 664.215 382.761L668.212 386.758C666.822 388.175 665.44 389.174 664.064 389.756 662.69 390.335 660.984 390.625 658.943 390.625 655.711 390.625 652.99 389.522 650.776 387.311 649.474 386.006 648.65 384.497 648.31 382.78 647.97 381.066 647.8 378.552 647.8 375.233 647.8 371.919 647.97 369.41 648.31 367.706 648.65 366.008 649.474 364.491 650.776 363.157 652.99 360.946 655.711 359.84 658.943 359.84 662.344 359.84 665.164 361.004 667.401 363.327 668.451 364.406 669.182 365.66 669.594 367.093 670.003 368.522 670.21 370.359 670.21 372.599L670.21 372.599" fill="#FFFFFF" transform="matrix(1 0 0 -1 1410.14 4755.44)"/><path d="M691.67 380.42C690.934 381.188 690.153 381.725 689.331 382.039 688.51 382.349 687.546 382.506 686.44 382.506 685.305 382.506 684.234 382.278 683.23 381.826 682.222 381.372 681.439 380.805 680.87 380.125L680.87 382.251 675.47 382.251 675.47 360.098 680.997 360.098 680.997 373.449C680.997 374.752 681.359 375.759 682.082 376.468 682.805 377.175 683.634 377.531 684.569 377.531 685.191 377.531 685.722 377.43 686.164 377.231 686.602 377.034 687.049 376.694 687.503 376.211L691.67 380.42" fill="#FFFFFF" transform="matrix(1 0 0 -1 1410.14 4755.44)"/><path d="M711.572 360.098 711.572 374.68C711.572 379.897 708.426 382.506 702.133 382.506 700.235 382.506 698.689 382.286 697.498 381.847 696.307 381.406 695.189 380.606 694.139 379.442L697.668 375.998C698.266 376.681 698.867 377.157 699.475 377.425 700.086 377.693 700.9 377.829 701.92 377.829 703.395 377.829 704.45 377.55 705.088 377 705.726 376.444 706.045 375.559 706.045 374.342L706.045 373.237 700.815 373.237C698.348 373.237 696.472 372.634 695.181 371.427 693.892 370.223 693.246 368.684 693.246 366.816 693.246 364.775 693.857 363.114 695.074 361.839 696.379 360.536 698.263 359.885 700.73 359.885 701.979 359.885 703.004 360.047 703.812 360.374 704.62 360.699 705.407 361.246 706.172 362.011L706.172 360.098ZM706.045 368.259C706.045 366.901 705.776 365.966 705.237 365.456 704.785 365.03 704.301 364.746 703.791 364.602 703.281 364.462 702.6 364.393 701.75 364.393 700.7 364.393 699.908 364.618 699.369 365.073 698.832 365.525 698.561 366.149 698.561 366.944 698.561 368.615 699.597 369.452 701.665 369.452L706.045 369.452 706.045 368.259" fill="#FFFFFF" transform="matrix(1 0 0 -1 1410.14 4755.44)"/><path d="M736.032 371.196C736.032 373.463 735.905 375.342 735.647 376.83 735.392 378.318 734.77 379.543 733.779 380.508 733.154 381.132 732.367 381.621 731.419 381.975 730.467 382.328 729.455 382.506 728.376 382.506 727.185 382.506 726.159 382.328 725.293 381.975 724.429 381.621 723.616 381.018 722.848 380.165L722.848 382.251 717.491 382.251 717.491 351.977 723.018 351.977 723.018 362.051C723.728 361.259 724.514 360.693 725.378 360.35 726.245 360.01 727.244 359.84 728.376 359.84 729.455 359.84 730.467 360.018 731.419 360.374 732.367 360.728 733.154 361.217 733.779 361.839 734.77 362.833 735.421 364.249 735.734 366.093 735.875 366.829 735.96 367.595 735.99 368.387 736.016 369.181 736.032 370.117 736.032 371.196ZM730.502 371.196C730.502 370.175 730.459 369.296 730.374 368.56 730.289 367.821 730.119 367.17 729.867 366.601 729.612 366.035 729.229 365.596 728.719 365.283 728.206 364.972 727.555 364.818 726.76 364.818 725.968 364.818 725.317 364.972 724.804 365.283 724.297 365.596 723.911 366.035 723.659 366.601 723.404 367.17 723.234 367.821 723.148 368.56 723.061 369.296 723.018 370.175 723.018 371.196 723.018 372.216 723.061 373.093 723.148 373.832 723.234 374.568 723.404 375.214 723.659 375.764 723.911 376.32 724.297 376.75 724.804 377.064 725.317 377.375 725.968 377.531 726.76 377.531 727.555 377.531 728.206 377.375 728.719 377.064 729.229 376.75 729.612 376.32 729.867 375.764 730.119 375.214 730.289 374.568 730.374 373.832 730.459 373.093 730.502 372.216 730.502 371.196L730.502 371.196" fill="#FFFFFF" transform="matrix(1 0 0 -1 1410.14 4755.44)"/><path d="M759.57 360.098 759.57 374.427C759.57 376.835 758.924 378.783 757.633 380.274 756.344 381.762 754.523 382.506 752.169 382.506 750.128 382.506 748.358 381.741 746.854 380.208L746.854 390.373 741.326 390.373 741.326 360.098 746.854 360.098 746.854 373.619C746.854 374.951 747.202 375.937 747.895 376.572 748.592 377.212 749.434 377.531 750.425 377.531 751.417 377.531 752.267 377.218 752.977 376.596 753.686 375.971 754.042 374.977 754.042 373.619L754.042 360.098 759.57 360.098" fill="#FFFFFF" transform="matrix(1 0 0 -1 1410.14 4755.44)"/><path d="M771.702 388.502C771.702 389.464 771.367 390.28 770.702 390.947 770.035 391.611 769.222 391.943 768.257 391.943 767.293 391.943 766.471 391.611 765.791 390.947 765.111 390.28 764.771 389.464 764.771 388.502 764.771 387.537 765.111 386.716 765.791 386.035 766.471 385.355 767.293 385.015 768.257 385.015 769.222 385.015 770.035 385.355 770.702 386.035 771.367 386.716 771.702 387.537 771.702 388.502ZM771.021 360.098 771.021 382.251 765.494 382.251 765.494 360.098 771.021 360.098" fill="#FFFFFF" transform="matrix(1 0 0 -1 1410.14 4755.44)"/><path d="M793.318 362.862 789.576 366.561C788.981 365.937 788.415 365.49 787.875 365.222 787.336 364.951 786.714 364.818 786.004 364.818 784.702 364.818 783.652 365.299 782.858 366.261 782.037 367.284 781.625 368.926 781.625 371.196 781.625 373.433 782.037 375.062 782.858 376.086 783.652 377.048 784.702 377.531 786.004 377.531 786.714 377.531 787.336 377.396 787.875 377.127 788.415 376.856 788.981 376.41 789.576 375.785L793.318 379.53C792.356 380.55 791.277 381.3 790.086 381.783 788.898 382.264 787.535 382.506 786.004 382.506 784.787 382.506 783.602 382.32 782.454 381.953 781.306 381.584 780.251 380.976 779.289 380.125 778.324 379.275 777.551 378.105 776.969 376.617 776.387 375.129 776.097 373.322 776.097 371.196 776.097 369.07 776.387 367.26 776.969 365.774 777.551 364.286 778.324 363.109 779.289 362.245 780.251 361.379 781.306 360.762 782.454 360.396 783.602 360.026 784.787 359.84 786.004 359.84 788.954 359.84 791.391 360.847 793.318 362.862L793.318 362.862" fill="#FFFFFF" transform="matrix(1 0 0 -1 1410.14 4755.44)"/><path d="M814.302 367.071C814.302 368.969 813.749 370.478 812.643 371.6 811.538 372.719 809.893 373.378 807.711 373.574L805.968 373.747 804.224 373.917C803.345 374.002 802.741 374.22 802.417 374.574 802.09 374.93 801.928 375.347 801.928 375.831 801.928 376.426 802.189 376.928 802.715 377.34 803.238 377.749 804.025 377.957 805.075 377.957 806.151 377.957 807.129 377.842 808.009 377.616 808.886 377.388 809.625 377.005 810.22 376.468L813.621 379.913C812.63 380.848 811.432 381.512 810.028 381.911 808.625 382.307 807.001 382.506 805.16 382.506 802.779 382.506 800.756 381.882 799.101 380.635 797.442 379.386 796.613 377.659 796.613 375.448 796.613 373.492 797.166 372.017 798.272 371.026 799.377 370.032 800.98 369.437 803.076 369.24L804.862 369.07 806.56 368.9C807.384 368.815 807.979 368.602 808.349 368.262 808.718 367.922 808.902 367.451 808.902 366.859 808.902 366.093 808.519 365.519 807.754 365.134 806.988 364.754 806.066 364.563 804.99 364.563 803.884 364.563 802.827 364.703 801.822 364.988 800.815 365.27 799.901 365.822 799.079 366.643L795.465 363.032C796.741 361.756 798.123 360.903 799.611 360.481 801.099 360.053 802.864 359.84 804.905 359.84 807.653 359.84 809.906 360.457 811.665 361.69 813.422 362.923 814.302 364.717 814.302 367.071L814.302 367.071" fill="#FFFFFF" transform="matrix(1 0 0 -1 1410.14 4755.44)"/><path d="M470.38 314.513 470.38 329.098C470.38 334.315 467.234 336.922 460.941 336.922 459.04 336.922 457.496 336.704 456.306 336.263 455.115 335.824 453.996 335.024 452.947 333.86L456.476 330.416C457.071 331.096 457.675 331.572 458.283 331.84 458.894 332.112 459.707 332.244 460.728 332.244 462.2 332.244 463.258 331.968 463.896 331.415 464.534 330.862 464.852 329.978 464.852 328.758L464.852 327.652 459.622 327.652C457.156 327.652 455.277 327.052 453.989 325.845 452.7 324.641 452.054 323.103 452.054 321.232 452.054 319.191 452.662 317.532 453.882 316.257 455.187 314.955 457.071 314.301 459.537 314.301 460.786 314.301 461.812 314.466 462.62 314.79 463.428 315.117 464.215 315.661 464.98 316.427L464.98 314.513ZM464.852 322.677C464.852 321.317 464.584 320.384 464.045 319.871 463.593 319.446 463.109 319.164 462.599 319.023 462.089 318.88 461.408 318.808 460.558 318.808 459.508 318.808 458.716 319.036 458.177 319.488 457.64 319.943 457.369 320.567 457.369 321.362 457.369 323.033 458.405 323.868 460.473 323.868L464.852 323.868 464.852 322.677" fill="#FFFFFF" transform="matrix(1 0 0 -1 1410.14 4755.44)"/><path d="M494.71 314.513 494.71 328.675C494.71 329.978 494.548 331.139 494.221 332.159 493.897 333.18 493.307 334.115 492.456 334.966 491.154 336.271 489.411 336.922 487.226 336.922 486.177 336.922 485.172 336.725 484.207 336.326 483.245 335.93 482.408 335.362 481.701 334.626L481.701 336.667 476.298 336.667 476.298 314.513 481.826 314.513 481.826 327.907C481.826 329.297 482.188 330.318 482.91 330.971 483.633 331.623 484.505 331.947 485.525 331.947 486.519 331.947 487.378 331.623 488.098 330.971 488.821 330.318 489.182 329.297 489.182 327.907L489.182 314.513 494.71 314.513" fill="#FFFFFF" transform="matrix(1 0 0 -1 1410.14 4755.44)"/><path d="M518.279 314.513 518.279 344.788 512.752 344.788 512.752 334.711C512.042 335.505 511.256 336.071 510.392 336.411 509.526 336.752 508.513 336.922 507.349 336.922 506.273 336.922 505.26 336.746 504.309 336.39 503.36 336.037 502.573 335.548 501.952 334.926 500.987 333.961 500.37 332.733 500.099 331.248 499.831 329.757 499.695 327.881 499.695 325.611 499.695 324.535 499.717 323.599 499.759 322.805 499.802 322.013 499.881 321.248 499.996 320.509 500.336 318.667 500.987 317.248 501.952 316.257 502.573 315.635 503.368 315.146 504.333 314.79 505.295 314.436 506.315 314.258 507.394 314.258 508.582 314.258 509.603 314.436 510.456 314.79 511.306 315.146 512.114 315.749 512.877 316.597L512.877 314.513ZM512.752 325.611C512.752 324.62 512.709 323.748 512.624 322.999 512.539 322.247 512.366 321.601 512.111 321.062 511.545 319.844 510.498 319.233 508.967 319.233 508.173 319.233 507.522 319.39 507.009 319.701 506.499 320.014 506.116 320.453 505.861 321.019 505.608 321.588 505.438 322.239 505.353 322.975 505.268 323.714 505.226 324.591 505.226 325.611 505.226 326.632 505.268 327.511 505.353 328.247 505.438 328.986 505.608 329.629 505.861 330.182 506.116 330.735 506.499 331.168 507.009 331.479 507.522 331.793 508.173 331.947 508.967 331.947 510.498 331.947 511.545 331.338 512.111 330.118 512.366 329.582 512.539 328.949 512.624 328.226 512.709 327.503 512.752 326.632 512.752 325.611L512.752 325.611" fill="#FFFFFF" transform="matrix(1 0 0 -1 1410.14 4755.44)"/><path d="M555.907 344.788 549.742 344.788 543.662 325.058 537.581 344.788 531.458 344.788 541.451 314.513 545.873 314.513 555.907 344.788" fill="#FFFFFF" transform="matrix(1 0 0 -1 1410.14 4755.44)"/><path d="M565.307 342.917C565.307 343.882 564.972 344.695 564.308 345.362 563.641 346.029 562.828 346.361 561.863 346.361 560.898 346.361 560.077 346.029 559.397 345.362 558.716 344.695 558.376 343.882 558.376 342.917 558.376 341.955 558.716 341.131 559.397 340.451 560.077 339.771 560.898 339.43 561.863 339.43 562.828 339.43 563.641 339.771 564.308 340.451 564.972 341.131 565.307 341.955 565.307 342.917ZM564.627 314.513 564.627 336.667 559.099 336.667 559.099 314.513 564.627 314.513" fill="#FFFFFF" transform="matrix(1 0 0 -1 1410.14 4755.44)"/><path d="M587.476 321.487C587.476 323.387 586.923 324.896 585.818 326.015 584.712 327.137 583.067 327.796 580.886 327.992L579.142 328.162 577.399 328.333C576.519 328.418 575.919 328.638 575.592 328.992 575.268 329.348 575.103 329.765 575.103 330.246 575.103 330.841 575.366 331.346 575.889 331.755 576.413 332.167 577.202 332.372 578.249 332.372 579.328 332.372 580.306 332.26 581.183 332.032 582.063 331.806 582.799 331.423 583.394 330.886L586.796 334.328C585.805 335.263 584.606 335.93 583.203 336.326 581.8 336.725 580.176 336.922 578.334 336.922 575.953 336.922 573.933 336.3 572.275 335.051 570.617 333.804 569.788 332.074 569.788 329.863 569.788 327.907 570.34 326.435 571.446 325.441 572.552 324.45 574.154 323.855 576.251 323.655L578.037 323.485 579.737 323.315C580.561 323.233 581.157 323.017 581.523 322.677 581.893 322.337 582.076 321.869 582.076 321.274 582.076 320.509 581.696 319.935 580.928 319.552 580.163 319.169 579.243 318.981 578.164 318.981 577.059 318.981 576.004 319.121 574.996 319.403 573.989 319.688 573.075 320.24 572.254 321.062L568.64 317.447C569.915 316.172 571.297 315.321 572.785 314.896 574.274 314.471 576.038 314.258 578.079 314.258 580.83 314.258 583.083 314.875 584.84 316.108 586.597 317.341 587.476 319.135 587.476 321.487L587.476 321.487" fill="#FFFFFF" transform="matrix(1 0 0 -1 1410.14 4755.44)"/><path d="M610.307 314.513 610.307 336.667 604.779 336.667 604.779 323.273C604.779 321.885 604.418 320.865 603.695 320.211 602.975 319.56 602.101 319.233 601.08 319.233 600.089 319.233 599.231 319.56 598.508 320.211 597.785 320.865 597.423 321.885 597.423 323.273L597.423 336.667 591.896 336.667 591.896 322.507C591.896 321.205 592.06 320.041 592.385 319.023 592.712 318.003 593.299 317.067 594.149 316.214 595.454 314.912 597.197 314.258 599.382 314.258 600.429 314.258 601.436 314.458 602.401 314.854 603.363 315.252 604.2 315.818 604.907 316.554L604.907 314.513 610.307 314.513" fill="#FFFFFF" transform="matrix(1 0 0 -1 1410.14 4755.44)"/><path d="M633.239 314.513 633.239 329.098C633.239 334.315 630.092 336.922 623.799 336.922 621.899 336.922 620.355 336.704 619.165 336.263 617.974 335.824 616.853 335.024 615.805 333.86L619.335 330.416C619.93 331.096 620.533 331.572 621.142 331.84 621.75 332.112 622.566 332.244 623.584 332.244 625.059 332.244 626.117 331.968 626.755 331.415 627.392 330.862 627.711 329.978 627.711 328.758L627.711 327.652 622.479 327.652C620.015 327.652 618.136 327.052 616.847 325.845 615.558 324.641 614.913 323.103 614.913 321.232 614.913 319.191 615.521 317.532 616.741 316.257 618.043 314.955 619.93 314.301 622.396 314.301 623.643 314.301 624.671 314.466 625.479 314.79 626.284 315.117 627.073 315.661 627.839 316.427L627.839 314.513ZM627.711 322.677C627.711 321.317 627.44 320.384 626.901 319.871 626.449 319.446 625.968 319.164 625.458 319.023 624.947 318.88 624.267 318.808 623.417 318.808 622.367 318.808 621.572 319.036 621.036 319.488 620.496 319.943 620.228 320.567 620.228 321.362 620.228 323.033 621.261 323.868 623.332 323.868L627.711 323.868 627.711 322.677" fill="#FFFFFF" transform="matrix(1 0 0 -1 1410.14 4755.44)"/><path d="M648.554 314.513 648.554 319.191 646.428 319.191C645.123 319.191 644.472 319.858 644.472 321.192L644.472 344.788 638.945 344.788 638.945 320.849C638.945 319.121 639.489 317.633 640.582 316.384 641.671 315.138 643.282 314.513 645.408 314.513L648.554 314.513" fill="#FFFFFF" transform="matrix(1 0 0 -1 1410.14 4755.44)"/><path d="M659.15 342.917C659.15 343.882 658.818 344.695 658.151 345.362 657.486 346.029 656.67 346.361 655.708 346.361 654.744 346.361 653.922 346.029 653.24 345.362 652.562 344.695 652.219 343.882 652.219 342.917 652.219 341.955 652.562 341.131 653.24 340.451 653.922 339.771 654.744 339.43 655.708 339.43 656.67 339.43 657.486 339.771 658.151 340.451 658.818 341.131 659.15 341.955 659.15 342.917ZM658.469 314.513 658.469 336.667 652.942 336.667 652.942 314.513 658.469 314.513" fill="#FFFFFF" transform="matrix(1 0 0 -1 1410.14 4755.44)"/><path d="M680.003 314.513 680.003 319.488 670.054 319.488 680.003 332.457 680.003 336.667 663.676 336.667 663.676 331.692 672.945 331.692 663.12 318.723 663.12 314.513 680.003 314.513" fill="#FFFFFF" transform="matrix(1 0 0 -1 1410.14 4755.44)"/><path d="M701.753 314.513 701.753 329.098C701.753 334.315 698.606 336.922 692.313 336.922 690.413 336.922 688.869 336.704 687.678 336.263 686.488 335.824 685.366 335.024 684.319 333.86L687.849 330.416C688.444 331.096 689.047 331.572 689.656 331.84 690.264 332.112 691.08 332.244 692.101 332.244 693.573 332.244 694.631 331.968 695.268 331.415 695.906 330.862 696.225 329.978 696.225 328.758L696.225 327.652 690.995 327.652C688.529 327.652 686.653 327.052 685.361 325.845 684.072 324.641 683.426 323.103 683.426 321.232 683.426 319.191 684.035 317.532 685.255 316.257 686.56 314.955 688.444 314.301 690.91 314.301 692.159 314.301 693.185 314.466 693.993 314.79 694.801 315.117 695.587 315.661 696.353 316.427L696.353 314.513ZM696.225 322.677C696.225 321.317 695.954 320.384 695.417 319.871 694.963 319.446 694.482 319.164 693.971 319.023 693.461 318.88 692.781 318.808 691.93 318.808 690.881 318.808 690.089 319.036 689.549 319.488 689.012 319.943 688.741 320.567 688.741 321.362 688.741 323.033 689.775 323.868 691.845 323.868L696.225 323.868 696.225 322.677" fill="#FFFFFF" transform="matrix(1 0 0 -1 1410.14 4755.44)"/><path d="M717.621 314.513 717.621 319.191 715.622 319.191C714.347 319.191 713.709 319.858 713.709 321.192L713.709 331.822 717.621 331.822 717.621 336.031 713.709 336.031 713.709 342.577 708.181 342.577 708.181 336.031 705.843 336.031 705.843 331.822 708.181 331.822 708.181 320.849C708.181 319.121 708.726 317.633 709.818 316.384 710.911 315.138 712.505 314.513 714.602 314.513L717.621 314.513" fill="#FFFFFF" transform="matrix(1 0 0 -1 1410.14 4755.44)"/><path d="M728.828 342.917C728.828 343.882 728.495 344.695 727.828 345.362 727.161 346.029 726.348 346.361 725.383 346.361 724.419 346.361 723.598 346.029 722.917 345.362 722.237 344.695 721.897 343.882 721.897 342.917 721.897 341.955 722.237 341.131 722.917 340.451 723.598 339.771 724.419 339.43 725.383 339.43 726.348 339.43 727.161 339.771 727.828 340.451 728.495 341.131 728.828 341.955 728.828 342.917ZM728.147 314.513 728.147 336.667 722.62 336.667 722.62 314.513 728.147 314.513" fill="#FFFFFF" transform="matrix(1 0 0 -1 1410.14 4755.44)"/><path d="M752.147 325.611C752.147 327.708 751.969 329.417 751.616 330.735 751.26 332.053 750.601 333.209 749.639 334.203 748.873 334.995 747.914 335.646 746.769 336.156 745.621 336.667 744.278 336.922 742.748 336.922 741.22 336.922 739.886 336.674 738.751 336.178 737.619 335.683 736.667 335.024 735.902 334.203 734.94 333.209 734.281 332.053 733.925 330.735 733.571 329.417 733.393 327.708 733.393 325.611 733.393 323.485 733.571 321.763 733.925 320.445 734.281 319.127 734.94 317.973 735.902 316.982 736.667 316.188 737.619 315.534 738.751 315.024 739.886 314.513 741.22 314.258 742.748 314.258 744.278 314.258 745.621 314.513 746.769 315.024 747.914 315.534 748.873 316.188 749.639 316.982 750.601 317.973 751.26 319.127 751.616 320.445 751.969 321.763 752.147 323.485 752.147 325.611ZM746.62 325.611C746.62 324.253 746.54 323.145 746.386 322.297 746.229 321.447 745.881 320.751 745.341 320.211 744.69 319.56 743.827 319.233 742.748 319.233 741.701 319.233 740.85 319.56 740.199 320.211 739.686 320.751 739.346 321.447 739.179 322.297 739.006 323.145 738.921 324.253 738.921 325.611 738.921 326.972 739.006 328.077 739.179 328.928 739.346 329.778 739.686 330.459 740.199 330.969 740.85 331.623 741.701 331.947 742.748 331.947 743.827 331.947 744.69 331.623 745.341 330.969 745.881 330.459 746.229 329.778 746.386 328.928 746.54 328.077 746.62 326.972 746.62 325.611L746.62 325.611" fill="#FFFFFF" transform="matrix(1 0 0 -1 1410.14 4755.44)"/><path d="M775.829 314.513 775.829 328.675C775.829 329.978 775.667 331.139 775.34 332.159 775.013 333.18 774.426 334.115 773.575 334.966 772.27 336.271 770.527 336.922 768.345 336.922 767.295 336.922 766.288 336.725 765.326 336.326 764.361 335.93 763.527 335.362 762.817 334.626L762.817 336.667 757.417 336.667 757.417 314.513 762.945 314.513 762.945 327.907C762.945 329.297 763.306 330.318 764.029 330.971 764.752 331.623 765.624 331.947 766.644 331.947 767.638 331.947 768.494 331.623 769.217 330.971 769.94 330.318 770.301 329.297 770.301 327.907L770.301 314.513 775.829 314.513" fill="#FFFFFF" transform="matrix(1 0 0 -1 1410.14 4755.44)"/></g></svg>