<svg width="492" height="143" xmlns="http://www.w3.org/2000/svg" xmlns:xlink="http://www.w3.org/1999/xlink" xml:space="preserve" overflow="hidden"><defs><clipPath id="clip0"><rect x="2268" y="4305" width="492" height="143"/></clipPath></defs><g clip-path="url(#clip0)" transform="translate(-2268 -4305)"><path d="M2449.95 4312.07 2449.95 4344.03 2442.4 4344.03 2442.4 4312.07 2432.29 4312.07 2432.29 4305.35 2460.07 4305.35 2460.07 4312.07ZM2466.85 4344.03 2466.85 4305.35 2492.34 4305.35 2492.34 4312.07 2474.41 4312.07 2474.41 4321.15 2489.68 4321.15 2489.68 4327.89 2474.41 4327.89 2474.41 4337.29 2492.34 4337.29 2492.34 4344.03ZM2522.72 4341.2C2520.14 4343.3 2517.01 4344.35 2513.31 4344.35 2509.41 4344.43 2505.64 4342.9 2502.9 4340.11 2501.29 4338.53 2500.2 4336.5 2499.74 4334.29 2499.31 4332.12 2499.09 4328.91 2499.09 4324.67 2499.1 4320.43 2499.32 4317.22 2499.74 4315.03 2500.19 4312.82 2501.28 4310.81 2502.9 4309.24 2505.64 4306.45 2509.41 4304.92 2513.31 4305 2517.05 4305 2520.19 4306.05 2522.74 4308.15 2525.3 4310.25 2526.9 4313.28 2527.55 4317.22L2519.88 4317.22C2519.56 4315.7 2518.8 4314.31 2517.68 4313.23 2516.61 4312.24 2515.17 4311.74 2513.34 4311.74 2511.27 4311.74 2509.66 4312.41 2508.5 4313.75 2508.12 4314.17 2507.8 4314.64 2507.55 4315.16 2507.29 4315.77 2507.11 4316.41 2507.01 4317.06 2506.86 4318.04 2506.76 4319.02 2506.71 4320 2506.64 4321.19 2506.6 4322.75 2506.6 4324.67 2506.6 4326.6 2506.64 4328.15 2506.71 4329.35 2506.76 4330.33 2506.86 4331.31 2507.01 4332.28 2507.11 4332.94 2507.29 4333.58 2507.55 4334.19 2507.8 4334.7 2508.12 4335.18 2508.5 4335.6 2509.66 4336.94 2511.27 4337.61 2513.34 4337.61 2515.15 4337.61 2516.6 4337.11 2517.68 4336.11 2518.8 4335.03 2519.56 4333.64 2519.88 4332.12L2527.54 4332.12C2526.9 4336.08 2525.29 4339.12 2522.72 4341.22ZM2555.38 4344.03 2555.38 4327.85 2542.28 4327.85 2542.28 4344.05 2534.73 4344.05 2534.73 4305.35 2542.28 4305.35 2542.28 4321.17 2555.38 4321.17 2555.38 4305.35 2562.93 4305.35 2562.93 4344.04ZM2595.49 4344.03 2580.16 4320.28 2580.16 4344.03 2572.61 4344.03 2572.61 4305.35 2579.35 4305.35 2594.68 4329.05 2594.68 4305.35 2602.23 4305.35 2602.23 4344.04ZM2611.9 4344.03 2611.9 4305.35 2619.45 4305.35 2619.45 4344.04ZM2650.1 4341.23C2647.42 4343.31 2643.98 4344.35 2639.77 4344.35 2637.07 4344.4 2634.38 4344.01 2631.81 4343.18 2629.48 4342.36 2627.37 4341.01 2625.64 4339.24L2630.54 4334.35C2631.68 4335.5 2633.09 4336.36 2634.64 4336.85 2636.34 4337.38 2638.11 4337.63 2639.88 4337.61 2644.45 4337.61 2646.73 4336.02 2646.73 4332.84 2646.8 4331.7 2646.43 4330.58 2645.69 4329.71 2645.01 4328.97 2643.81 4328.47 2642.11 4328.22L2639.94 4327.89 2637.44 4327.57C2634.14 4327.09 2631.64 4326.02 2629.94 4324.36 2628.09 4322.51 2627.16 4319.98 2627.16 4316.75 2627.16 4313.24 2628.38 4310.4 2630.8 4308.25 2633.23 4306.09 2636.51 4305.01 2640.64 4305.01 2643.04 4304.96 2645.43 4305.32 2647.7 4306.07 2649.75 4306.81 2651.61 4308 2653.15 4309.54L2648.38 4314.24C2647.37 4313.24 2646.13 4312.51 2644.77 4312.12 2643.35 4311.75 2641.89 4311.57 2640.42 4311.58 2638.5 4311.58 2637.03 4312.04 2636 4312.97 2634.98 4313.84 2634.42 4315.13 2634.45 4316.47 2634.46 4317.51 2634.89 4318.5 2635.65 4319.21 2636.44 4320.03 2637.62 4320.55 2639.18 4320.76L2641.51 4321.09 2643.74 4321.41C2645.24 4321.61 2646.71 4321.97 2648.12 4322.5 2649.24 4322.93 2650.26 4323.58 2651.13 4324.4 2653.12 4326.28 2654.12 4329.02 2654.12 4332.61 2654.12 4336.28 2652.78 4339.16 2650.11 4341.25ZM2684.23 4341.2C2681.66 4343.3 2678.52 4344.35 2674.83 4344.35 2670.92 4344.43 2667.15 4342.9 2664.41 4340.11 2662.81 4338.53 2661.71 4336.5 2661.26 4334.29 2660.82 4332.12 2660.61 4328.91 2660.61 4324.67 2660.61 4320.43 2660.82 4317.22 2661.26 4315.03 2661.7 4312.82 2662.8 4310.81 2664.41 4309.24 2667.15 4306.45 2670.92 4304.92 2674.83 4305 2678.56 4305 2681.7 4306.05 2684.26 4308.15 2686.81 4310.25 2688.41 4313.28 2689.07 4317.22L2681.4 4317.22C2681.09 4315.7 2680.32 4314.31 2679.2 4313.23 2678.14 4312.24 2676.69 4311.74 2674.86 4311.74 2672.8 4311.74 2671.18 4312.41 2670.03 4313.75 2669.64 4314.17 2669.32 4314.64 2669.08 4315.16 2668.81 4315.77 2668.63 4316.41 2668.53 4317.06 2668.38 4318.04 2668.28 4319.02 2668.23 4320 2668.16 4321.19 2668.12 4322.75 2668.12 4324.67 2668.12 4326.6 2668.16 4328.15 2668.23 4329.35 2668.28 4330.33 2668.38 4331.31 2668.53 4332.28 2668.63 4332.94 2668.81 4333.58 2669.08 4334.19 2669.32 4334.7 2669.64 4335.18 2670.03 4335.6 2671.18 4336.94 2672.8 4337.61 2674.86 4337.61 2676.67 4337.61 2678.12 4337.11 2679.2 4336.11 2680.32 4335.03 2681.09 4333.64 2681.4 4332.12L2689.07 4332.12C2688.41 4336.08 2686.8 4339.12 2684.23 4341.22ZM2716.89 4344.03 2716.89 4327.85 2703.79 4327.85 2703.79 4344.05 2696.24 4344.05 2696.24 4305.35 2703.79 4305.35 2703.79 4321.17 2716.89 4321.17 2716.89 4305.35 2724.45 4305.35 2724.45 4344.04ZM2734.12 4344.03 2734.12 4305.35 2759.6 4305.35 2759.6 4312.07 2741.67 4312.07 2741.67 4321.15 2756.94 4321.15 2756.94 4327.89 2741.67 4327.89 2741.67 4337.29 2759.6 4337.29 2759.6 4344.03ZM2459.65 4387.97C2458.95 4389.62 2457.91 4391.1 2456.61 4392.32 2455.29 4393.54 2453.74 4394.48 2452.05 4395.09 2448.46 4396.36 2444.54 4396.36 2440.96 4395.09 2439.26 4394.48 2437.71 4393.54 2436.39 4392.32 2435.09 4391.1 2434.05 4389.62 2433.35 4387.97 2432.61 4386.22 2432.24 4384.33 2432.27 4382.43L2432.27 4357 2439.82 4357 2439.82 4382.17C2439.82 4384.39 2440.43 4386.12 2441.64 4387.38 2442.85 4388.65 2444.47 4389.28 2446.5 4389.29 2448.57 4389.29 2450.2 4388.65 2451.42 4387.38 2452.64 4386.12 2453.24 4384.38 2453.24 4382.17L2453.24 4357 2460.74 4357 2460.74 4382.43C2460.76 4384.34 2460.39 4386.22 2459.65 4387.97ZM2492.25 4395.69 2476.93 4371.94 2476.93 4395.69 2469.37 4395.69 2469.37 4357 2476.11 4357 2491.44 4380.69 2491.44 4357 2498.99 4357 2498.99 4395.69ZM2508.23 4395.69 2508.23 4357 2515.78 4357 2515.78 4395.69ZM2539.1 4395.69 2533.45 4395.69 2520.68 4357 2528.5 4357 2536.27 4382.22 2544.04 4357 2551.92 4357ZM2556.81 4395.69 2556.81 4357 2582.3 4357 2582.3 4363.73 2564.37 4363.73 2564.37 4372.81 2579.64 4372.81 2579.64 4379.54 2564.37 4379.54 2564.37 4388.95 2582.3 4388.95 2582.3 4395.69ZM2610.45 4395.69 2602.9 4380.26 2597.46 4380.26 2597.46 4395.69 2589.91 4395.69 2589.91 4357 2605.07 4357C2606.86 4356.97 2608.64 4357.29 2610.32 4357.92 2611.81 4358.49 2613.17 4359.36 2614.31 4360.48 2615.39 4361.55 2616.23 4362.84 2616.78 4364.26 2617.35 4365.72 2617.64 4367.28 2617.63 4368.85 2617.63 4371.42 2616.96 4373.58 2615.62 4375.32 2614.33 4377.02 2612.57 4378.3 2610.56 4379.01L2619.21 4395.69ZM2608.55 4365.15C2607.46 4364.18 2606.04 4363.67 2604.58 4363.74L2597.46 4363.74 2597.46 4373.96 2604.58 4373.96C2606.04 4374.02 2607.46 4373.51 2608.55 4372.54 2610.57 4370.5 2610.57 4367.21 2608.55 4365.16ZM2646.64 4392.89C2643.96 4394.98 2640.52 4396.02 2636.31 4396.02 2633.61 4396.07 2630.92 4395.68 2628.35 4394.85 2626.02 4394.03 2623.91 4392.68 2622.18 4390.91L2627.08 4386.02C2628.22 4387.17 2629.63 4388.03 2631.18 4388.52 2632.88 4389.04 2634.65 4389.3 2636.42 4389.28 2640.99 4389.28 2643.27 4387.69 2643.27 4384.5 2643.27 4383.16 2642.92 4382.12 2642.23 4381.38 2641.55 4380.63 2640.35 4380.13 2638.65 4379.88L2636.48 4379.56 2633.98 4379.23C2630.68 4378.76 2628.18 4377.69 2626.48 4376.02 2624.63 4374.18 2623.7 4371.64 2623.7 4368.42 2623.7 4364.91 2624.92 4362.07 2627.35 4359.91 2629.77 4357.76 2633.05 4356.68 2637.18 4356.68 2639.58 4356.63 2641.97 4356.99 2644.24 4357.74 2646.29 4358.48 2648.14 4359.65 2649.68 4361.18L2644.9 4365.9C2643.9 4364.9 2642.66 4364.17 2641.29 4363.78 2639.88 4363.41 2638.42 4363.22 2636.95 4363.24 2635.03 4363.24 2633.55 4363.7 2632.52 4364.62 2631.51 4365.5 2630.94 4366.79 2630.97 4368.13 2630.99 4369.17 2631.42 4370.16 2632.17 4370.87 2632.97 4371.69 2634.15 4372.2 2635.71 4372.42L2638.04 4372.75 2640.27 4373.07C2641.76 4373.26 2643.23 4373.63 2644.64 4374.16 2645.76 4374.59 2646.79 4375.24 2647.66 4376.06 2649.65 4377.94 2650.65 4380.68 2650.65 4384.26 2650.66 4387.94 2649.32 4390.82 2646.64 4392.89ZM2658 4395.69 2658 4357 2665.55 4357 2665.55 4395.69ZM2689.57 4363.73 2689.57 4395.68 2682.02 4395.68 2682.02 4363.73 2671.91 4363.73 2671.91 4357 2699.7 4357 2699.7 4363.73ZM2724.78 4395.69 2722.5 4388.84 2708.75 4388.84 2706.41 4395.69 2698.53 4395.69 2712.62 4357 2718.55 4357 2732.68 4395.69ZM2715.76 4368.41 2710.89 4382.48 2720.51 4382.48ZM2703.43 4349.93 2710.09 4349.93 2710.09 4356.74 2703.43 4356.74ZM2721.61 4349.93 2721.61 4356.74 2728.27 4356.74 2728.27 4349.93ZM2749.19 4363.73 2749.19 4395.68 2741.64 4395.68 2741.64 4363.73 2731.53 4363.73 2731.53 4357 2759.31 4357 2759.31 4363.73ZM2459.69 4437.72C2459.24 4439.97 2458.11 4442.04 2456.46 4443.64 2455.19 4444.9 2453.66 4445.84 2451.98 4446.41 2450.13 4447.05 2448.19 4447.36 2446.24 4447.34L2432.28 4447.34 2432.28 4408.64 2446.25 4408.64C2448.2 4408.62 2450.13 4408.94 2451.98 4409.57 2453.67 4410.14 2455.2 4411.09 2456.46 4412.35 2457.33 4413.17 2458.05 4414.12 2458.6 4415.18 2459.14 4416.23 2459.54 4417.36 2459.77 4418.52 2460.03 4419.81 2460.2 4421.11 2460.26 4422.43 2460.34 4423.82 2460.37 4425.62 2460.37 4427.83 2460.38 4432.18 2460.15 4435.47 2459.69 4437.72ZM2452.52 4421.11C2452.4 4419.9 2451.93 4418.74 2451.19 4417.77 2449.88 4416.18 2448 4415.38 2445.55 4415.38L2439.83 4415.38 2439.83 4440.6 2445.54 4440.6C2448 4440.6 2449.88 4439.8 2451.18 4438.21 2451.94 4437.2 2452.4 4436.01 2452.51 4434.75 2452.75 4432.45 2452.85 4430.13 2452.81 4427.81 2452.86 4425.57 2452.76 4423.34 2452.52 4421.11ZM2488.85 4447.33 2481.29 4431.88 2475.86 4431.88 2475.86 4447.34 2468.31 4447.34 2468.31 4408.64 2483.47 4408.64C2485.26 4408.62 2487.04 4408.93 2488.71 4409.57 2490.21 4410.13 2491.57 4411 2492.71 4412.12 2493.79 4413.2 2494.63 4414.48 2495.18 4415.9 2495.74 4417.37 2496.02 4418.92 2496.01 4420.49 2496.01 4423.07 2495.34 4425.22 2494 4426.96 2492.71 4428.66 2490.95 4429.95 2488.94 4430.66L2497.59 4447.34ZM2486.95 4416.79C2485.86 4415.83 2484.44 4415.32 2482.98 4415.39L2475.86 4415.39 2475.86 4425.61 2482.98 4425.61C2484.44 4425.67 2485.86 4425.16 2486.95 4424.19 2488.97 4422.15 2488.97 4418.86 2486.95 4416.81ZM2504.06 4447.33 2504.06 4408.64 2529.55 4408.64 2529.55 4415.39 2511.63 4415.39 2511.63 4424.47 2526.91 4424.47 2526.91 4431.2 2511.63 4431.2 2511.63 4440.61 2529.57 4440.61 2529.57 4447.34ZM2558.14 4444.53C2555.46 4446.62 2552.01 4447.66 2547.81 4447.66 2545.11 4447.71 2542.42 4447.32 2539.85 4446.5 2537.52 4445.67 2535.41 4444.33 2533.68 4442.55L2538.58 4437.66C2539.72 4438.81 2541.13 4439.67 2542.68 4440.16 2544.38 4440.69 2546.14 4440.94 2547.92 4440.92 2552.49 4440.92 2554.77 4439.33 2554.77 4436.15 2554.77 4434.81 2554.42 4433.77 2553.73 4433.02 2553.05 4432.28 2551.85 4431.78 2550.15 4431.53L2547.98 4431.2 2545.48 4430.88C2542.18 4430.41 2539.68 4429.34 2537.98 4427.67 2536.13 4425.82 2535.2 4423.29 2535.2 4420.06 2535.2 4416.55 2536.42 4413.72 2538.84 4411.56 2541.27 4409.4 2544.55 4408.33 2548.68 4408.33 2551.08 4408.28 2553.47 4408.63 2555.74 4409.38 2557.79 4410.12 2559.64 4411.3 2561.18 4412.84L2556.4 4417.56C2555.4 4416.56 2554.16 4415.83 2552.79 4415.45 2551.38 4415.07 2549.92 4414.89 2548.45 4414.9 2546.53 4414.9 2545.05 4415.36 2544.02 4416.29 2543.01 4417.17 2542.44 4418.45 2542.47 4419.79 2542.48 4420.83 2542.92 4421.82 2543.67 4422.53 2544.47 4423.35 2545.65 4423.87 2547.2 4424.08L2549.54 4424.41 2551.77 4424.74C2553.26 4424.93 2554.73 4425.29 2556.14 4425.82 2557.26 4426.25 2558.29 4426.9 2559.16 4427.72 2561.15 4429.61 2562.15 4432.34 2562.15 4435.93 2562.16 4439.6 2560.82 4442.47 2558.14 4444.54ZM2596.91 4437.71C2596.45 4439.97 2595.33 4442.03 2593.68 4443.64 2592.42 4444.89 2590.88 4445.84 2589.2 4446.41 2587.35 4447.04 2585.41 4447.35 2583.46 4447.33L2569.5 4447.33 2569.5 4408.64 2583.46 4408.64C2585.41 4408.62 2587.35 4408.94 2589.2 4409.57 2590.88 4410.14 2592.42 4411.09 2593.68 4412.35 2594.55 4413.17 2595.27 4414.12 2595.82 4415.18 2596.36 4416.23 2596.76 4417.36 2596.99 4418.52 2597.26 4419.81 2597.42 4421.11 2597.48 4422.43 2597.56 4423.82 2597.59 4425.62 2597.59 4427.83 2597.58 4432.18 2597.36 4435.47 2596.91 4437.72ZM2589.74 4421.11C2589.61 4419.89 2589.15 4418.74 2588.41 4417.77 2587.1 4416.17 2585.22 4415.38 2582.76 4415.38L2577.05 4415.38 2577.05 4440.59 2582.75 4440.59C2585.22 4440.59 2587.1 4439.8 2588.4 4438.2 2589.15 4437.2 2589.62 4436 2589.73 4434.75 2589.97 4432.44 2590.07 4430.12 2590.03 4427.8 2590.07 4425.57 2589.98 4423.34 2589.74 4421.11ZM2605.53 4447.33 2605.53 4408.64 2631.01 4408.64 2631.01 4415.39 2613.08 4415.39 2613.08 4424.47 2628.35 4424.47 2628.35 4431.2 2613.08 4431.2 2613.08 4440.61 2631.01 4440.61 2631.01 4447.34ZM2661.5 4447.33 2646.18 4423.58 2646.18 4447.34 2638.62 4447.34 2638.62 4408.64 2645.34 4408.64 2660.68 4432.32 2660.68 4408.64 2668.24 4408.64 2668.24 4447.34ZM2338.91 4447.2 2366.94 4447.2 2409.82 4404.19 2409.82 4348.41 2366.94 4305.4 2338.91 4305.4 2338.91 4309.7 2365.14 4309.7 2405.51 4350.07 2405.51 4402.53 2365.14 4442.9 2338.91 4442.9ZM2268 4348.41 2268 4404.19 2311.02 4447.21 2338.91 4447.21 2338.91 4442.91 2312.68 4442.91 2272.31 4402.53 2272.31 4350.07 2272.31 4350.07 2312.68 4309.7 2338.91 4309.7 2338.91 4305.4 2311.02 4305.4ZM2401.21 4357.01 2401.21 4357.01 2401.21 4351.74 2363.47 4313.99 2338.91 4313.99 2338.91 4318.3 2361.8 4318.3 2396.21 4352.71 2354.05 4352.71 2354.05 4397.81 2338.91 4397.81 2338.91 4402.11 2358.34 4402.11 2358.34 4357.01ZM2338.91 4313.99 2314.35 4313.99 2276.6 4351.74 2276.6 4357.01 2319.62 4357.01 2319.62 4402.11 2338.9 4402.11 2338.9 4397.81 2323.92 4397.81 2323.92 4352.71 2281.74 4352.71 2316.15 4318.3 2338.91 4318.3ZM2397.03 4365.61 2366.94 4365.61 2366.94 4410.71 2338.91 4410.71 2338.91 4406.41 2362.64 4406.41 2362.64 4361.32 2401.21 4361.32 2401.21 4400.86 2363.47 4438.61 2338.91 4438.61 2338.91 4434.31 2361.8 4434.31 2396.91 4399.2 2397.05 4365.61ZM2338.91 4410.71 2311.02 4410.71 2311.02 4365.61 2280.9 4365.61 2280.9 4399.2 2316.15 4434.31 2338.9 4434.31 2338.9 4438.61 2314.35 4438.61 2276.6 4400.86 2276.6 4361.32 2315.32 4361.32 2315.32 4406.41 2338.9 4406.41Z" fill="#FFFFFF"/></g></svg>